<svg xmlns="http://www.w3.org/2000/svg" viewBox="0 0 200 220" width="200" height="220" fill="none">
  
  <g stroke="#150f23" stroke-width="3.5" stroke-linecap="round" stroke-linejoin="round">
    <ellipse cx="100" cy="200" rx="56" ry="8" fill="#79628c" stroke="none" opacity="0.4"></ellipse>
    
    <path d="M40 116 Q 36 60 100 56 Q 164 60 160 116 L 160 174 Q 160 196 100 196 Q 40 196 40 174 Z" fill="#c2ef4e"></path>
    
    <path d="M62 60 L 56 38 L 72 52 Z" fill="#c2ef4e"></path>
    <path d="M138 60 L 144 38 L 128 52 Z" fill="#c2ef4e"></path>
    
    <ellipse cx="100" cy="148" rx="34" ry="24" fill="#ffffff"></ellipse>
    
    <circle cx="78" cy="100" r="14" fill="#ffffff"></circle>
    <circle cx="122" cy="100" r="14" fill="#ffffff"></circle>
    
    <circle cx="80" cy="102" r="5" fill="#150f23" stroke="none"></circle>
    <circle cx="124" cy="102" r="5" fill="#150f23" stroke="none"></circle>
    
    <path d="M82 130 Q 100 144 118 130" fill="none"></path>
    
    <path d="M96 134 L 100 142 L 104 134 Z" fill="#ffffff"></path>
    
    <circle cx="64" cy="124" r="5" fill="#fa7faa" stroke="none" opacity="0.85"></circle>
    <circle cx="136" cy="124" r="5" fill="#fa7faa" stroke="none" opacity="0.85"></circle>
    
    <ellipse cx="74" cy="200" rx="14" ry="8" fill="#150f23"></ellipse>
    <ellipse cx="126" cy="200" rx="14" ry="8" fill="#150f23"></ellipse>
  </g>
</svg>