<svg xmlns="http://www.w3.org/2000/svg" viewBox="0 0 800 600" width="800" height="600">
  
  <rect width="800" height="600" fill="#1f1633"></rect>
  <g fill="#ffffff">
    <circle cx="34" cy="62" r="0.8" opacity="0.38"></circle>
    <circle cx="112" cy="28" r="0.6" opacity="0.22"></circle>
    <circle cx="178" cy="94" r="1.0" opacity="0.45"></circle>
    <circle cx="246" cy="22" r="0.7" opacity="0.28"></circle>
    <circle cx="312" cy="74" r="0.5" opacity="0.18"></circle>
    <circle cx="392" cy="42" r="0.9" opacity="0.42"></circle>
    <circle cx="466" cy="88" r="0.6" opacity="0.24"></circle>
    <circle cx="538" cy="14" r="0.8" opacity="0.36"></circle>
    <circle cx="612" cy="58" r="1.1" opacity="0.5"></circle>
    <circle cx="686" cy="32" r="0.7" opacity="0.3"></circle>
    <circle cx="754" cy="82" r="0.6" opacity="0.22"></circle>
    <circle cx="58" cy="142" r="0.7" opacity="0.28"></circle>
    <circle cx="144" cy="178" r="1.0" opacity="0.46"></circle>
    <circle cx="218" cy="124" r="0.5" opacity="0.18"></circle>
    <circle cx="282" cy="166" r="0.8" opacity="0.34"></circle>
    <circle cx="358" cy="138" r="0.6" opacity="0.24"></circle>
    <circle cx="422" cy="174" r="0.9" opacity="0.42"></circle>
    <circle cx="496" cy="122" r="0.7" opacity="0.3"></circle>
    <circle cx="568" cy="164" r="1.1" opacity="0.5"></circle>
    <circle cx="642" cy="136" r="0.6" opacity="0.22"></circle>
    <circle cx="724" cy="172" r="0.8" opacity="0.36"></circle>
    <circle cx="22" cy="226" r="0.9" opacity="0.42"></circle>
    <circle cx="98" cy="262" r="0.6" opacity="0.24"></circle>
    <circle cx="172" cy="214" r="0.7" opacity="0.28"></circle>
    <circle cx="248" cy="248" r="1.0" opacity="0.45"></circle>
    <circle cx="328" cy="222" r="0.5" opacity="0.18"></circle>
    <circle cx="402" cy="258" r="0.8" opacity="0.34"></circle>
    <circle cx="478" cy="212" r="0.6" opacity="0.24"></circle>
    <circle cx="552" cy="244" r="0.9" opacity="0.42"></circle>
    <circle cx="624" cy="218" r="0.7" opacity="0.3"></circle>
    <circle cx="698" cy="252" r="1.1" opacity="0.48"></circle>
    <circle cx="768" cy="224" r="0.6" opacity="0.22"></circle>
    <circle cx="44" cy="312" r="0.7" opacity="0.28"></circle>
    <circle cx="118" cy="348" r="0.9" opacity="0.4"></circle>
    <circle cx="192" cy="304" r="0.6" opacity="0.22"></circle>
    <circle cx="264" cy="338" r="0.8" opacity="0.36"></circle>
    <circle cx="338" cy="308" r="1.0" opacity="0.46"></circle>
    <circle cx="412" cy="344" r="0.5" opacity="0.18"></circle>
    <circle cx="488" cy="318" r="0.7" opacity="0.3"></circle>
    <circle cx="562" cy="354" r="0.6" opacity="0.24"></circle>
    <circle cx="636" cy="312" r="0.9" opacity="0.42"></circle>
    <circle cx="708" cy="346" r="0.8" opacity="0.34"></circle>
    <circle cx="772" cy="306" r="1.1" opacity="0.5"></circle>
    <circle cx="32" cy="402" r="0.8" opacity="0.34"></circle>
    <circle cx="108" cy="438" r="0.5" opacity="0.18"></circle>
    <circle cx="182" cy="394" r="0.9" opacity="0.42"></circle>
    <circle cx="254" cy="428" r="0.7" opacity="0.28"></circle>
    <circle cx="328" cy="398" r="0.6" opacity="0.24"></circle>
    <circle cx="402" cy="434" r="1.0" opacity="0.45"></circle>
    <circle cx="478" cy="406" r="0.8" opacity="0.36"></circle>
    <circle cx="552" cy="442" r="0.5" opacity="0.18"></circle>
    <circle cx="624" cy="412" r="0.9" opacity="0.42"></circle>
    <circle cx="694" cy="446" r="0.6" opacity="0.22"></circle>
    <circle cx="766" cy="408" r="0.7" opacity="0.3"></circle>
    <circle cx="64" cy="492" r="0.6" opacity="0.24"></circle>
    <circle cx="138" cy="528" r="1.0" opacity="0.46"></circle>
    <circle cx="212" cy="484" r="0.7" opacity="0.28"></circle>
    <circle cx="286" cy="518" r="0.8" opacity="0.34"></circle>
    <circle cx="358" cy="488" r="0.5" opacity="0.18"></circle>
    <circle cx="432" cy="524" r="0.9" opacity="0.42"></circle>
    <circle cx="506" cy="496" r="0.6" opacity="0.24"></circle>
    <circle cx="578" cy="532" r="0.8" opacity="0.36"></circle>
    <circle cx="652" cy="486" r="1.1" opacity="0.5"></circle>
    <circle cx="722" cy="522" r="0.7" opacity="0.3"></circle>
    <circle cx="788" cy="494" r="0.6" opacity="0.22"></circle>
    <circle cx="48" cy="572" r="0.9" opacity="0.42"></circle>
    <circle cx="126" cy="556" r="0.6" opacity="0.24"></circle>
    <circle cx="198" cy="582" r="0.8" opacity="0.34"></circle>
    <circle cx="272" cy="568" r="0.5" opacity="0.18"></circle>
    <circle cx="346" cy="586" r="0.7" opacity="0.3"></circle>
    <circle cx="418" cy="572" r="1.0" opacity="0.45"></circle>
    <circle cx="492" cy="562" r="0.6" opacity="0.22"></circle>
    <circle cx="566" cy="584" r="0.9" opacity="0.42"></circle>
    <circle cx="638" cy="568" r="0.8" opacity="0.36"></circle>
    <circle cx="712" cy="578" r="0.5" opacity="0.18"></circle>
    <circle cx="782" cy="564" r="0.7" opacity="0.28"></circle>
  </g>
</svg>